<?xml version="1.0" standalone="no"?>
<!DOCTYPE svg PUBLIC "-//W3C//DTD SVG 20010904//EN"
 "http://www.w3.org/TR/2001/REC-SVG-20010904/DTD/svg10.dtd">
<svg version="1.0" xmlns="http://www.w3.org/2000/svg"
 width="480.000000pt" height="480.000000pt" viewBox="0 0 480.000000 480.000000"
 preserveAspectRatio="xMidYMid meet">
<metadata>
Created by potrace 1.11, written by Peter Selinger 2001-2013
</metadata>
<g transform="translate(0.000000,480.000000) scale(0.100000,-0.100000)"
fill="#000000" stroke="none">
<path d="M10 4785 c0 -3 70 -145 155 -316 l156 -310 112 7 c62 4 114 8 116 10
1 1 -4 13 -13 26 -9 12 -16 35 -16 51 0 28 1 29 38 22 20 -3 41 -11 47 -16 21
-21 25 -4 25 106 l0 115 -310 155 c-171 85 -310 153 -310 150z"/>
<path d="M717 4293 l-6 -138 70 -70 69 -70 0 71 c0 39 3 118 6 175 l7 104 -67
33 c-36 17 -68 32 -70 32 -2 0 -6 -62 -9 -137z"/>
<path d="M2365 4379 c-124 -15 -315 -56 -423 -90 -111 -36 -322 -124 -338
-142 -9 -9 2 -74 40 -255 l51 -243 500 -496 c275 -274 886 -882 1357 -1352
l856 -854 52 79 c210 324 340 771 340 1171 0 389 -112 795 -310 1123 -339 563
-886 934 -1540 1045 -114 20 -470 28 -585 14z"/>
<path d="M946 4247 c-3 -40 -7 -127 -9 -194 l-3 -122 83 -83 c45 -45 84 -80
87 -77 2 2 7 108 11 234 l7 230 -85 42 -85 42 -6 -72z"/>
<path d="M1206 4023 c-3 -87 -8 -201 -11 -253 l-6 -96 1456 -1448 1456 -1449
-32 -33 -32 -33 -1455 1447 -1455 1447 -46 -2 c-25 0 -139 -4 -253 -8 -145 -5
-208 -11 -208 -19 1 -6 24 -56 53 -111 l52 -100 274 -67 275 -67 480 -478
c265 -263 880 -875 1367 -1361 l886 -884 74 68 c41 37 107 104 148 148 l73 81
-1366 1360 -1366 1360 -61 240 c-33 132 -65 257 -70 278 -9 35 -17 41 -109 87
-55 28 -104 50 -109 50 -5 0 -12 -71 -15 -157z"/>
<path d="M525 4083 c-60 -2 -120 -5 -132 -8 l-23 -5 32 -65 32 -65 61 0 c33 0
111 3 173 7 l113 6 -58 59 c-32 33 -65 62 -73 66 -8 4 -64 6 -125 5z"/>
<path d="M553 3853 l-73 -4 46 -90 c42 -85 46 -90 72 -85 15 3 118 8 230 12
111 3 202 9 202 13 0 4 -35 41 -78 84 l-77 77 -125 -2 c-69 -1 -158 -4 -197
-5z"/>
<path d="M612 3110 c-87 -189 -153 -425 -183 -650 -15 -119 -15 -407 0 -520
47 -344 166 -671 338 -935 556 -850 1610 -1209 2568 -875 158 55 476 218 514
264 9 11 -243 267 -1344 1362 l-1356 1349 -227 47 c-125 26 -236 47 -248 48
-17 0 -29 -18 -62 -90z"/>
</g>
</svg>
